<svg width="36" height="37" viewBox="0 0 36 37" fill="none" xmlns="http://www.w3.org/2000/svg">
<rect width="35.9429" height="37" fill="white"/>
<path d="M25.6436 16.0551H21.6393C21.5859 15.644 21.4764 15.2729 21.3109 14.9419C21.1454 14.6109 20.9265 14.3279 20.6542 14.093C20.3819 13.8581 20.0589 13.6792 19.6852 13.5564C19.3168 13.4283 18.9083 13.3642 18.4598 13.3642C17.6643 13.3642 16.9782 13.5591 16.4016 13.9488C15.8303 14.3386 15.3898 14.9019 15.0802 15.6386C14.7758 16.3754 14.6237 17.2671 14.6237 18.3135C14.6237 19.4027 14.7785 20.3157 15.0882 21.0525C15.4032 21.784 15.8437 22.3366 16.4096 22.7103C16.9809 23.0787 17.6563 23.2629 18.4358 23.2629C18.8736 23.2629 19.2714 23.2068 19.6291 23.0947C19.9922 22.9826 20.3098 22.8197 20.5821 22.6062C20.8598 22.3873 21.0867 22.123 21.2629 21.8133C21.4444 21.4983 21.5699 21.1433 21.6393 20.7482L25.6436 20.7722C25.5742 21.4983 25.3633 22.2138 25.0109 22.9185C24.6639 23.6233 24.186 24.2666 23.5774 24.8486C22.9687 25.4252 22.2266 25.8844 21.351 26.2261C20.4807 26.5678 19.4823 26.7386 18.3557 26.7386C16.8714 26.7386 15.542 26.413 14.3674 25.7616C13.1981 25.1049 12.2745 24.1492 11.5964 22.8945C10.9183 21.6398 10.5793 20.1128 10.5793 18.3135C10.5793 16.5089 10.9237 14.9793 11.6124 13.7246C12.3012 12.4699 13.2328 11.5169 14.4075 10.8655C15.5821 10.2141 16.8981 9.88843 18.3557 9.88843C19.3488 9.88843 20.2671 10.0272 21.1107 10.3049C21.9543 10.5772 22.6964 10.9776 23.3371 11.5062C23.9778 12.0294 24.4984 12.6728 24.8988 13.4363C25.2992 14.1998 25.5475 15.0727 25.6436 16.0551Z" fill="#00235C"/>
</svg>
