<svg width="130" height="37" viewBox="0 0 130 37" fill="none" xmlns="http://www.w3.org/2000/svg">
<rect width="129.324" height="37" fill="#00235C"/>
<path d="M54.5298 16.631H52.2774C52.2474 16.3998 52.1858 16.1911 52.0927 16.0049C51.9996 15.8187 51.8765 15.6595 51.7233 15.5274C51.5701 15.3952 51.3884 15.2946 51.1782 15.2255C50.971 15.1534 50.7412 15.1174 50.489 15.1174C50.0415 15.1174 49.6556 15.227 49.3312 15.4463C49.0099 15.6655 48.7621 15.9823 48.5879 16.3968C48.4167 16.8112 48.3311 17.3128 48.3311 17.9014C48.3311 18.5141 48.4182 19.0276 48.5924 19.4421C48.7696 19.8535 49.0174 20.1644 49.3357 20.3746C49.6571 20.5818 50.037 20.6854 50.4755 20.6854C50.7217 20.6854 50.9455 20.6539 51.1467 20.5908C51.3509 20.5278 51.5296 20.4362 51.6828 20.316C51.8389 20.1929 51.9666 20.0442 52.0657 19.87C52.1678 19.6929 52.2384 19.4931 52.2774 19.2709L54.5298 19.2844C54.4908 19.6929 54.3722 20.0953 54.174 20.4917C53.9787 20.8881 53.71 21.25 53.3676 21.5774C53.0252 21.9017 52.6078 22.16 52.1152 22.3522C51.6257 22.5444 51.0641 22.6405 50.4304 22.6405C49.5955 22.6405 48.8477 22.4573 48.187 22.0909C47.5293 21.7215 47.0097 21.184 46.6283 20.4782C46.2469 19.7724 46.0562 18.9135 46.0562 17.9014C46.0562 16.8863 46.2499 16.0259 46.6373 15.3201C47.0247 14.6144 47.5488 14.0783 48.2095 13.7119C48.8702 13.3455 49.6105 13.1623 50.4304 13.1623C50.989 13.1623 51.5056 13.2404 51.9801 13.3965C52.4546 13.5497 52.872 13.775 53.2324 14.0723C53.5928 14.3666 53.8856 14.7285 54.1109 15.158C54.3361 15.5874 54.4758 16.0784 54.5298 16.631ZM64.7675 17.9014C64.7675 18.9165 64.5723 19.7769 64.1818 20.4827C63.7914 21.1885 63.2628 21.7246 62.5961 22.0909C61.9324 22.4573 61.1876 22.6405 60.3617 22.6405C59.5328 22.6405 58.7865 22.4558 58.1228 22.0864C57.4591 21.717 56.932 21.181 56.5416 20.4782C56.1542 19.7724 55.9605 18.9135 55.9605 17.9014C55.9605 16.8863 56.1542 16.0259 56.5416 15.3201C56.932 14.6144 57.4591 14.0783 58.1228 13.7119C58.7865 13.3455 59.5328 13.1623 60.3617 13.1623C61.1876 13.1623 61.9324 13.3455 62.5961 13.7119C63.2628 14.0783 63.7914 14.6144 64.1818 15.3201C64.5723 16.0259 64.7675 16.8863 64.7675 17.9014ZM62.488 17.9014C62.488 17.3008 62.4024 16.7932 62.2312 16.3788C62.063 15.9643 61.8198 15.6505 61.5014 15.4373C61.1861 15.224 60.8062 15.1174 60.3617 15.1174C59.9202 15.1174 59.5403 15.224 59.222 15.4373C58.9036 15.6505 58.6589 15.9643 58.4877 16.3788C58.3195 16.7932 58.2354 17.3008 58.2354 17.9014C58.2354 18.5021 58.3195 19.0096 58.4877 19.4241C58.6589 19.8385 58.9036 20.1524 59.222 20.3656C59.5403 20.5788 59.9202 20.6854 60.3617 20.6854C60.8062 20.6854 61.1861 20.5788 61.5014 20.3656C61.8198 20.1524 62.063 19.8385 62.2312 19.4241C62.4024 19.0096 62.488 18.5021 62.488 17.9014ZM69.7333 22.5144H66.3231V13.2884H69.7288C70.6688 13.2884 71.4782 13.4731 72.1569 13.8425C72.8386 14.2089 73.3642 14.7375 73.7336 15.4282C74.103 16.116 74.2877 16.9389 74.2877 17.8969C74.2877 18.858 74.103 19.6838 73.7336 20.3746C73.3672 21.0653 72.8431 21.5954 72.1614 21.9648C71.4797 22.3312 70.6703 22.5144 69.7333 22.5144ZM68.553 20.6133H69.6477C70.1642 20.6133 70.6012 20.5263 70.9586 20.3521C71.319 20.1749 71.5908 19.8881 71.774 19.4916C71.9602 19.0922 72.0533 18.5606 72.0533 17.8969C72.0533 17.2332 71.9602 16.7046 71.774 16.3112C71.5878 15.9148 71.313 15.6295 70.9496 15.4553C70.5892 15.2781 70.1447 15.1895 69.6162 15.1895H68.553V20.6133ZM78.0732 13.2884V22.5144H75.8433V13.2884H78.0732ZM87.5788 13.2884V22.5144H85.6868L82.0153 17.1896H81.9567V22.5144H79.7268V13.2884H81.6459L85.2768 18.6042H85.3534V13.2884H87.5788ZM95.2892 16.3022C95.2382 16.113 95.1631 15.9463 95.064 15.8021C94.9649 15.655 94.8432 15.5304 94.6991 15.4282C94.5549 15.3261 94.3898 15.2496 94.2035 15.1985C94.0173 15.1444 93.8131 15.1174 93.5909 15.1174C93.1434 15.1174 92.756 15.2255 92.4286 15.4418C92.1043 15.658 91.8535 15.9733 91.6763 16.3878C91.4991 16.7992 91.4105 17.2993 91.4105 17.8879C91.4105 18.4795 91.4961 18.9841 91.6673 19.4015C91.8385 19.819 92.0863 20.1373 92.4106 20.3566C92.735 20.5758 93.1284 20.6854 93.5909 20.6854C93.9993 20.6854 94.3447 20.6194 94.627 20.4872C94.9123 20.3521 95.1285 20.1614 95.2757 19.9151C95.4229 19.6688 95.4964 19.379 95.4964 19.0457L95.9109 19.0952H93.6675V17.469H97.6453V18.6898C97.6453 19.5157 97.4696 20.2229 97.1182 20.8116C96.7698 21.4002 96.2893 21.8522 95.6766 22.1675C95.067 22.4829 94.3657 22.6405 93.5729 22.6405C92.6929 22.6405 91.9196 22.4498 91.2529 22.0684C90.5861 21.687 90.0666 21.1434 89.6942 20.4377C89.3218 19.7289 89.1356 18.888 89.1356 17.9149C89.1356 17.1581 89.2482 16.4869 89.4734 15.9013C89.6987 15.3126 90.0125 14.8141 90.415 14.4056C90.8204 13.9972 91.2889 13.6879 91.8205 13.4776C92.3551 13.2674 92.9302 13.1623 93.5458 13.1623C94.0804 13.1623 94.5775 13.2389 95.0369 13.392C95.4994 13.5452 95.9079 13.7614 96.2623 14.0407C96.6197 14.32 96.9095 14.6519 97.1317 15.0363C97.354 15.4207 97.4921 15.8427 97.5462 16.3022H95.2892ZM102.192 22.5144V13.2884H104.422V17.1896H104.544L107.594 13.2884H110.22L106.95 17.4059L110.279 22.5144H107.612L105.314 18.888L104.422 20.0142V22.5144H102.192ZM113.583 13.2884V22.5144H111.353V13.2884H113.583ZM118.647 22.5144H115.237V13.2884H118.643C119.583 13.2884 120.392 13.4731 121.071 13.8425C121.752 14.2089 122.278 14.7375 122.647 15.4282C123.017 16.116 123.202 16.9389 123.202 17.8969C123.202 18.858 123.017 19.6838 122.647 20.3746C122.281 21.0653 121.757 21.5954 121.075 21.9648C120.393 22.3312 119.584 22.5144 118.647 22.5144ZM117.467 20.6133H118.562C119.078 20.6133 119.515 20.5263 119.872 20.3521C120.233 20.1749 120.505 19.8881 120.688 19.4916C120.874 19.0922 120.967 18.5606 120.967 17.8969C120.967 17.2332 120.874 16.7046 120.688 16.3112C120.502 15.9148 120.227 15.6295 119.863 15.4553C119.503 15.2781 119.059 15.1895 118.53 15.1895H117.467V20.6133Z" fill="white"/>
<rect width="35.9429" height="37" fill="white"/>
<path d="M25.6436 16.0551H21.6393C21.5859 15.644 21.4764 15.2729 21.3109 14.9419C21.1454 14.6109 20.9265 14.3279 20.6542 14.093C20.3819 13.8581 20.0589 13.6792 19.6852 13.5564C19.3168 13.4283 18.9083 13.3642 18.4598 13.3642C17.6643 13.3642 16.9782 13.5591 16.4016 13.9488C15.8303 14.3386 15.3898 14.9019 15.0802 15.6386C14.7758 16.3754 14.6237 17.2671 14.6237 18.3135C14.6237 19.4027 14.7785 20.3157 15.0882 21.0525C15.4032 21.784 15.8437 22.3366 16.4096 22.7103C16.9809 23.0787 17.6563 23.2629 18.4358 23.2629C18.8736 23.2629 19.2714 23.2068 19.6291 23.0947C19.9922 22.9826 20.3098 22.8197 20.5821 22.6062C20.8598 22.3873 21.0867 22.123 21.2629 21.8133C21.4444 21.4983 21.5699 21.1433 21.6393 20.7482L25.6436 20.7722C25.5742 21.4983 25.3633 22.2138 25.0109 22.9185C24.6639 23.6233 24.186 24.2666 23.5774 24.8486C22.9687 25.4252 22.2266 25.8844 21.351 26.2261C20.4807 26.5678 19.4823 26.7386 18.3557 26.7386C16.8714 26.7386 15.542 26.413 14.3674 25.7616C13.1981 25.1049 12.2745 24.1492 11.5964 22.8945C10.9183 21.6398 10.5793 20.1128 10.5793 18.3135C10.5793 16.5089 10.9237 14.9793 11.6124 13.7246C12.3012 12.4699 13.2328 11.5169 14.4075 10.8655C15.5821 10.2141 16.8981 9.88843 18.3557 9.88843C19.3488 9.88843 20.2671 10.0272 21.1107 10.3049C21.9543 10.5772 22.6964 10.9776 23.3371 11.5062C23.9778 12.0294 24.4984 12.6728 24.8988 13.4363C25.2992 14.1998 25.5475 15.0727 25.6436 16.0551Z" fill="#00235C"/>
</svg>
