<svg width="132" height="40" viewBox="0 0 132 40" fill="none" xmlns="http://www.w3.org/2000/svg">
<g clip-path="url(#clip0_2_369)">
<rect x="1" y="1.5" width="129.324" height="37" fill="#00235C"/>
<path d="M55.5298 18.131H53.2774C53.2474 17.8998 53.1858 17.6911 53.0927 17.5049C52.9996 17.3187 52.8765 17.1595 52.7233 17.0274C52.5701 16.8952 52.3884 16.7946 52.1782 16.7255C51.971 16.6534 51.7412 16.6174 51.489 16.6174C51.0415 16.6174 50.6556 16.727 50.3312 16.9463C50.0099 17.1655 49.7621 17.4823 49.5879 17.8968C49.4167 18.3112 49.3311 18.8128 49.3311 19.4014C49.3311 20.0141 49.4182 20.5276 49.5924 20.9421C49.7696 21.3535 50.0174 21.6644 50.3357 21.8746C50.6571 22.0818 51.037 22.1854 51.4755 22.1854C51.7217 22.1854 51.9455 22.1539 52.1467 22.0908C52.3509 22.0278 52.5296 21.9362 52.6828 21.816C52.8389 21.6929 52.9666 21.5442 53.0657 21.37C53.1678 21.1929 53.2384 20.9931 53.2774 20.7709L55.5298 20.7844C55.4908 21.1929 55.3722 21.5953 55.174 21.9917C54.9787 22.3881 54.71 22.75 54.3676 23.0774C54.0252 23.4017 53.6078 23.66 53.1152 23.8522C52.6257 24.0444 52.0641 24.1405 51.4304 24.1405C50.5955 24.1405 49.8477 23.9573 49.187 23.5909C48.5293 23.2215 48.0097 22.684 47.6283 21.9782C47.2469 21.2724 47.0562 20.4135 47.0562 19.4014C47.0562 18.3863 47.2499 17.5259 47.6373 16.8201C48.0247 16.1144 48.5488 15.5783 49.2095 15.2119C49.8702 14.8455 50.6105 14.6623 51.4304 14.6623C51.989 14.6623 52.5056 14.7404 52.9801 14.8965C53.4546 15.0497 53.872 15.275 54.2324 15.5723C54.5928 15.8666 54.8856 16.2285 55.1109 16.658C55.3361 17.0874 55.4758 17.5784 55.5298 18.131ZM65.7675 19.4014C65.7675 20.4165 65.5723 21.2769 65.1818 21.9827C64.7914 22.6885 64.2628 23.2246 63.5961 23.5909C62.9324 23.9573 62.1876 24.1405 61.3617 24.1405C60.5328 24.1405 59.7865 23.9558 59.1228 23.5864C58.4591 23.217 57.932 22.681 57.5416 21.9782C57.1542 21.2724 56.9605 20.4135 56.9605 19.4014C56.9605 18.3863 57.1542 17.5259 57.5416 16.8201C57.932 16.1144 58.4591 15.5783 59.1228 15.2119C59.7865 14.8455 60.5328 14.6623 61.3617 14.6623C62.1876 14.6623 62.9324 14.8455 63.5961 15.2119C64.2628 15.5783 64.7914 16.1144 65.1818 16.8201C65.5723 17.5259 65.7675 18.3863 65.7675 19.4014ZM63.488 19.4014C63.488 18.8008 63.4024 18.2932 63.2312 17.8788C63.063 17.4643 62.8198 17.1505 62.5014 16.9373C62.1861 16.724 61.8062 16.6174 61.3617 16.6174C60.9202 16.6174 60.5403 16.724 60.222 16.9373C59.9036 17.1505 59.6589 17.4643 59.4877 17.8788C59.3195 18.2932 59.2354 18.8008 59.2354 19.4014C59.2354 20.0021 59.3195 20.5096 59.4877 20.9241C59.6589 21.3385 59.9036 21.6524 60.222 21.8656C60.5403 22.0788 60.9202 22.1854 61.3617 22.1854C61.8062 22.1854 62.1861 22.0788 62.5014 21.8656C62.8198 21.6524 63.063 21.3385 63.2312 20.9241C63.4024 20.5096 63.488 20.0021 63.488 19.4014ZM70.7333 24.0144H67.3231V14.7884H70.7288C71.6688 14.7884 72.4782 14.9731 73.1569 15.3425C73.8386 15.7089 74.3642 16.2375 74.7336 16.9282C75.103 17.616 75.2877 18.4389 75.2877 19.3969C75.2877 20.358 75.103 21.1838 74.7336 21.8746C74.3672 22.5653 73.8431 23.0954 73.1614 23.4648C72.4797 23.8312 71.6703 24.0144 70.7333 24.0144ZM69.553 22.1133H70.6477C71.1642 22.1133 71.6012 22.0263 71.9586 21.8521C72.319 21.6749 72.5908 21.3881 72.774 20.9916C72.9602 20.5922 73.0533 20.0606 73.0533 19.3969C73.0533 18.7332 72.9602 18.2046 72.774 17.8112C72.5878 17.4148 72.313 17.1295 71.9496 16.9553C71.5892 16.7781 71.1447 16.6895 70.6162 16.6895H69.553V22.1133ZM79.0732 14.7884V24.0144H76.8433V14.7884H79.0732ZM88.5788 14.7884V24.0144H86.6868L83.0153 18.6896H82.9567V24.0144H80.7268V14.7884H82.6459L86.2768 20.1042H86.3534V14.7884H88.5788ZM96.2892 17.8022C96.2382 17.613 96.1631 17.4463 96.064 17.3021C95.9649 17.155 95.8432 17.0304 95.6991 16.9282C95.5549 16.8261 95.3898 16.7496 95.2035 16.6985C95.0173 16.6444 94.8131 16.6174 94.5909 16.6174C94.1434 16.6174 93.756 16.7255 93.4286 16.9418C93.1043 17.158 92.8535 17.4733 92.6763 17.8878C92.4991 18.2992 92.4105 18.7993 92.4105 19.3879C92.4105 19.9795 92.4961 20.4841 92.6673 20.9015C92.8385 21.319 93.0863 21.6373 93.4106 21.8566C93.735 22.0758 94.1284 22.1854 94.5909 22.1854C94.9993 22.1854 95.3447 22.1194 95.627 21.9872C95.9123 21.8521 96.1285 21.6614 96.2757 21.4151C96.4229 21.1688 96.4964 20.879 96.4964 20.5457L96.9109 20.5952H94.6675V18.969H98.6453V20.1898C98.6453 21.0157 98.4696 21.7229 98.1182 22.3116C97.7698 22.9002 97.2893 23.3522 96.6766 23.6675C96.067 23.9829 95.3657 24.1405 94.5729 24.1405C93.6929 24.1405 92.9196 23.9498 92.2529 23.5684C91.5861 23.187 91.0666 22.6434 90.6942 21.9377C90.3218 21.2289 90.1356 20.388 90.1356 19.4149C90.1356 18.6581 90.2482 17.9869 90.4734 17.4013C90.6987 16.8126 91.0125 16.3141 91.415 15.9056C91.8204 15.4972 92.2889 15.1879 92.8205 14.9776C93.3551 14.7674 93.9302 14.6623 94.5458 14.6623C95.0804 14.6623 95.5775 14.7389 96.0369 14.892C96.4994 15.0452 96.9079 15.2614 97.2623 15.5407C97.6197 15.82 97.9095 16.1519 98.1317 16.5363C98.354 16.9207 98.4921 17.3427 98.5462 17.8022H96.2892ZM103.192 24.0144V14.7884H105.422V18.6896H105.544L108.594 14.7884H111.22L107.95 18.9059L111.279 24.0144H108.612L106.314 20.388L105.422 21.5142V24.0144H103.192ZM114.583 14.7884V24.0144H112.353V14.7884H114.583ZM119.647 24.0144H116.237V14.7884H119.643C120.583 14.7884 121.392 14.9731 122.071 15.3425C122.752 15.7089 123.278 16.2375 123.647 16.9282C124.017 17.616 124.202 18.4389 124.202 19.3969C124.202 20.358 124.017 21.1838 123.647 21.8746C123.281 22.5653 122.757 23.0954 122.075 23.4648C121.393 23.8312 120.584 24.0144 119.647 24.0144ZM118.467 22.1133H119.562C120.078 22.1133 120.515 22.0263 120.872 21.8521C121.233 21.6749 121.505 21.3881 121.688 20.9916C121.874 20.5922 121.967 20.0606 121.967 19.3969C121.967 18.7332 121.874 18.2046 121.688 17.8112C121.502 17.4148 121.227 17.1295 120.863 16.9553C120.503 16.7781 120.059 16.6895 119.53 16.6895H118.467V22.1133Z" fill="white"/>
<rect x="1" y="1.5" width="35.9429" height="37" fill="white"/>
<path d="M26.6436 17.5551H22.6393C22.5859 17.144 22.4764 16.7729 22.3109 16.4419C22.1454 16.1109 21.9265 15.8279 21.6542 15.593C21.3819 15.3581 21.0589 15.1792 20.6852 15.0564C20.3168 14.9283 19.9083 14.8642 19.4598 14.8642C18.6643 14.8642 17.9782 15.0591 17.4016 15.4488C16.8303 15.8386 16.3898 16.4019 16.0802 17.1386C15.7758 17.8754 15.6237 18.7671 15.6237 19.8135C15.6237 20.9027 15.7785 21.8157 16.0882 22.5525C16.4032 23.284 16.8437 23.8366 17.4096 24.2103C17.9809 24.5787 18.6563 24.7629 19.4358 24.7629C19.8736 24.7629 20.2714 24.7068 20.6291 24.5947C20.9922 24.4826 21.3098 24.3197 21.5821 24.1062C21.8598 23.8873 22.0867 23.623 22.2629 23.3133C22.4444 22.9983 22.5699 22.6433 22.6393 22.2482L26.6436 22.2722C26.5742 22.9983 26.3633 23.7138 26.0109 24.4185C25.6639 25.1233 25.186 25.7666 24.5774 26.3486C23.9687 26.9252 23.2266 27.3844 22.351 27.7261C21.4807 28.0678 20.4823 28.2386 19.3557 28.2386C17.8714 28.2386 16.542 27.913 15.3674 27.2616C14.1981 26.6049 13.2745 25.6492 12.5964 24.3945C11.9183 23.1398 11.5793 21.6128 11.5793 19.8135C11.5793 18.0089 11.9237 16.4793 12.6124 15.2246C13.3012 13.9699 14.2328 13.0169 15.4075 12.3655C16.5821 11.7141 17.8981 11.3884 19.3557 11.3884C20.3488 11.3884 21.2671 11.5272 22.1107 11.8049C22.9543 12.0772 23.6964 12.4776 24.3371 13.0062C24.9778 13.5294 25.4984 14.1728 25.8988 14.9363C26.2992 15.6998 26.5475 16.5727 26.6436 17.5551Z" fill="#00235C"/>
</g>
<rect x="0.5" y="1" width="130.324" height="38" stroke="white"/>
<defs>
<clipPath id="clip0_2_369">
<rect x="1" y="1.5" width="129.324" height="37" fill="white"/>
</clipPath>
</defs>
</svg>
